HIERARCHY
ROOT Hips
{
	OFFSET 0.00 0.00 0.00
	CHANNELS 6 Xposition Yposition Zposition Xrotation Yrotation Zrotation
	JOINT Spine
	{
		OFFSET 0.00000 1.72418 2.58627
		CHANNELS 3 Xrotation Yrotation Zrotation
		JOINT Spine1
		{
			OFFSET 0.00000 0.59880 3.39597
			CHANNELS 3 Xrotation Yrotation Zrotation
			JOINT Spine2
			{
				OFFSET 0.00000 0.30054 3.43524
				CHANNELS 3 Xrotation Yrotation Zrotation
				JOINT Spine3
				{
					OFFSET 0.00000 0.00000 3.44836
					CHANNELS 3 Xrotation Yrotation Zrotation
					JOINT Neck
					{
						OFFSET 0.00000 -1.29314 9.05195
						CHANNELS 3 Xrotation Yrotation Zrotation
						JOINT Head
						{
							OFFSET 0.00000 -0.82335 4.66946
							CHANNELS 3 Xrotation Yrotation Zrotation
							End Site
							{
								OFFSET 0.00000 0.00000 5.58203
							}
						}
					}
					JOINT RightShoulder
					{
						OFFSET -1.18828 -1.98047 6.41672
						CHANNELS 3 Xrotation Yrotation Zrotation
						JOINT RightArm
						{
							OFFSET -5.90180 -0.00000 0.00000
							CHANNELS 3 Xrotation Yrotation Zrotation
							JOINT RightForeArm
							{
								OFFSET -11.45951 -0.00000 0.00000
								CHANNELS 3 Xrotation Yrotation Zrotation
								JOINT RightHand
								{
									OFFSET -10.63451 -0.00000 0.00000
									CHANNELS 3 Xrotation Yrotation Zrotation
									JOINT RightHandEnd
									{
										OFFSET -2.86944 -0.00000 0.00000
										CHANNELS 3 Xrotation Yrotation Zrotation
										End Site
										{
											OFFSET -2.86944 -0.00000 0.00000
										}
									}
									JOINT RightHandThumb1
									{
										OFFSET -1.14778 -1.91296 -0.76518
										CHANNELS 3 Xrotation Yrotation Zrotation
										End Site
										{
											OFFSET -2.77167 -0.74267 0.00000
										}
									}
								}
							}
						}
					}
					JOINT LeftShoulder
					{
						OFFSET 1.18828 -1.98047 6.41672
						CHANNELS 3 Xrotation Yrotation Zrotation
						JOINT LeftArm
						{
							OFFSET 5.90180 0.00000 0.00000
							CHANNELS 3 Xrotation Yrotation Zrotation
							JOINT LeftForeArm
							{
								OFFSET 11.45951 0.00000 0.00000
								CHANNELS 3 Xrotation Yrotation Zrotation
								JOINT LeftHand
								{
									OFFSET 10.63451 0.00000 0.00000
									CHANNELS 3 Xrotation Yrotation Zrotation
									JOINT LeftHandEnd
									{
										OFFSET 2.86944 0.00000 0.00000
										CHANNELS 3 Xrotation Yrotation Zrotation
										End Site
										{
											OFFSET 2.86944 0.00000 0.00000
										}
									}
									JOINT LeftHandThumb1
									{
										OFFSET 1.14778 -1.91296 -0.76518
										CHANNELS 3 Xrotation Yrotation Zrotation
										End Site
										{
											OFFSET 2.77167 -0.74267 0.00000
										}
									}
								}
							}
						}
					}
				}
			}
		}
	}
	JOINT RightUpLeg
	{
		OFFSET -3.52524 0.00000 -1.02984
		CHANNELS 3 Xrotation Yrotation Zrotation
		JOINT RightLeg
		{
			OFFSET 0.00000 0.00000 -17.80965
			CHANNELS 3 Xrotation Yrotation Zrotation
			JOINT RightFoot
			{
				OFFSET 0.00000 0.00000 -17.00908
				CHANNELS 3 Xrotation Yrotation Zrotation
				JOINT RightToeBase
				{
					OFFSET 0.00000 -5.55853 -2.02314
					CHANNELS 3 Xrotation Yrotation Zrotation
					End Site
					{
						OFFSET 0.00000 -2.85188 0.00000
					}
				}
			}
		}
	}
	JOINT LeftUpLeg
	{
		OFFSET 3.52524 0.00000 -1.02984
		CHANNELS 3 Xrotation Yrotation Zrotation
		JOINT LeftLeg
		{
			OFFSET 0.00000 0.00000 -17.80965
			CHANNELS 3 Xrotation Yrotation Zrotation
			JOINT LeftFoot
			{
				OFFSET 0.00000 0.00000 -17.00908
				CHANNELS 3 Xrotation Yrotation Zrotation
				JOINT LeftToeBase
				{
					OFFSET 0.00000 -5.55853 -2.02314
					CHANNELS 3 Xrotation Yrotation Zrotation
					End Site
					{
						OFFSET 0.00000 -2.85188 0.00000
					}
				}
			}
		}
	}
}
MOTION
Frames: 6
Frame Time: 0.008342
 2.6405 -12.4259 37.9525 0.8776 9.3533 -175.0944 1.4318 0.2789 0.4509 0.6372 1.0694 0.2650 3.2119 5.2957 1.3781 0.9064 1.5863 -1.0835 3.1163 2.0572 0.2294 5.1383 0.6973 -1.7724 14.6025 -14.8806 3.4594 30.6476 -35.1728 35.8513 -0.0000 -0.0000 30.1441 -8.5949 10.4038 2.2062 -0.0000 0.0000 -0.0000 0.0000 0.0000 0.0000 15.8309 14.3181 -1.3881 13.0032 36.3840 -17.3486 -0.0000 0.0000 -39.3080 -2.5707 -17.8324 -8.9112 -0.0000 0.0000 -0.0000 -0.0000 -0.0000 0.0000 -5.0363 3.5187 -30.0022 16.9735 0.0000 -0.0000 -15.8333 9.7012 0.2891 1.1786 0.0000 0.0000 -27.4892 -1.5609 10.5565 19.7436 0.0000 0.0000 -3.0953 8.3844 0.8312 -6.5307 -0.0000 0.0000
 2.6608 -12.3954 37.9618 0.4814 9.3488 -174.9249 1.2037 0.3648 0.3447 0.5322 1.0418 0.2565 3.1564 5.2971 1.2229 0.8953 1.5978 -1.1178 3.0774 2.0580 0.2493 5.0968 0.7125 -1.6411 14.5944 -14.9989 3.4282 30.6592 -35.1802 35.7484 0.0000 0.0000 30.0034 -8.5781 10.3484 2.1667 -0.0000 0.0000 0.0000 0.0000 0.0000 -0.0000 15.7433 14.3573 -1.5544 12.8540 36.1689 -17.3009 0.0000 0.0000 -39.4294 -2.5246 -17.8105 -8.9145 0.0000 0.0000 0.0000 -0.0000 0.0000 0.0000 -5.2867 3.5711 -30.4740 16.8573 -0.0000 0.0000 -15.8174 9.3576 0.6615 1.1155 0.0000 -0.0000 -25.8955 -1.5427 10.5643 19.8351 0.0000 0.0000 -3.3829 8.2742 0.7925 -6.7022 0.0000 -0.0000
 2.6799 -12.3609 37.9722 0.1202 9.3577 -174.7972 0.9898 0.4625 0.2434 0.4322 1.0157 0.2484 3.1127 5.2946 1.0837 0.8860 1.6034 -1.1475 3.0444 2.0655 0.2771 5.0523 0.7271 -1.5100 14.5841 -15.1161 3.4078 30.6660 -35.1686 35.6316 -0.0000 0.0000 29.8619 -8.5851 10.2918 2.1307 -0.0000 0.0000 -0.0000 0.0000 0.0000 -0.0000 15.6558 14.4095 -1.7197 12.7478 35.9399 -17.2884 -0.0000 0.0000 -39.5390 -2.4885 -17.7868 -8.9241 0.0000 -0.0000 0.0000 -0.0000 0.0000 -0.0000 -5.4991 3.6459 -30.9551 16.7529 0.0000 0.0000 -15.8098 8.9629 1.0867 1.0584 0.0000 0.0000 -24.2473 -1.5495 10.5995 19.8831 -0.0000 0.0000 -3.6547 8.1879 0.7478 -6.8588 -0.0000 0.0000
 2.6975 -12.3227 37.9836 -0.2082 9.3831 -174.7112 0.7889 0.5771 0.1482 0.3344 0.9877 0.2407 3.0814 5.2860 0.9594 0.8795 1.6062 -1.1733 3.0179 2.0757 0.3123 5.0053 0.7449 -1.3774 14.5699 -15.2345 3.3961 30.6737 -35.1308 35.5059 -0.0000 0.0000 29.7184 -8.6164 10.2327 2.0981 -0.0000 -0.0000 0.0000 0.0000 0.0000 -0.0000 15.5637 14.4759 -1.8791 12.6885 35.6962 -17.3126 -0.0000 0.0000 -39.6361 -2.4615 -17.7635 -8.9392 0.0000 0.0000 -0.0000 -0.0000 -0.0000 0.0000 -5.6782 3.7454 -31.4355 16.6641 0.0000 -0.0000 -15.8111 8.5278 1.5568 1.0086 -0.0000 0.0000 -22.5474 -1.5757 10.6636 19.8856 -0.0000 -0.0000 -3.9107 8.1257 0.7018 -6.9969 -0.0000 -0.0000
 2.7130 -12.2812 37.9958 -0.5112 9.4294 -174.6650 0.5944 0.7112 0.0612 0.2412 0.9563 0.2349 3.0605 5.2776 0.8429 0.8747 1.6035 -1.1916 2.9996 2.0905 0.3543 4.9577 0.7611 -1.2426 14.5483 -15.3586 3.3879 30.6904 -35.0565 35.3775 -0.0000 -0.0000 29.5688 -8.6707 10.1732 2.0740 -0.0000 0.0000 0.0000 -0.0000 0.0000 -0.0000 15.4662 14.5580 -2.0342 12.6772 35.4348 -17.3702 0.0000 -0.0000 -39.7207 -2.4395 -17.7390 -8.9586 -0.0000 0.0000 -0.0000 0.0000 -0.0000 -0.0000 -5.8353 3.8740 -31.9031 16.5973 -0.0000 0.0000 -15.8222 8.0663 2.0601 0.9667 -0.0000 0.0000 -20.8046 -1.6130 10.7552 19.8432 0.0000 0.0000 -4.1501 8.0875 0.6588 -7.1150 0.0000 0.0000
 2.7263 -12.2363 38.0089 -0.7828 9.4972 -174.6559 0.4145 0.8588 -0.0189 0.1535 0.9309 0.2296 3.0452 5.2670 0.7361 0.8713 1.5926 -1.2055 2.9919 2.1095 0.4039 4.9086 0.7775 -1.1050 14.5197 -15.4901 3.3827 30.7166 -34.9422 35.2455 -0.0000 0.0000 29.4160 -8.7410 10.1146 2.0535 -0.0000 0.0000 0.0000 0.0000 -0.0000 -0.0000 15.3642 14.6602 -2.1817 12.7137 35.1510 -17.4613 -0.0000 -0.0000 -39.7935 -2.4224 -17.7133 -8.9818 -0.0000 0.0000 -0.0000 -0.0000 0.0000 -0.0000 -5.9643 4.0293 -32.3514 16.5503 -0.0000 -0.0000 -15.8408 7.5919 2.5858 0.9314 0.0000 0.0000 -19.0164 -1.6570 10.8675 19.7609 0.0000 0.0000 -4.3756 8.0718 0.6214 -7.2123 0.0000 -0.0000
